<?xml version="1.0" encoding="utf-8" standalone="no"?>
<!DOCTYPE svg PUBLIC "-//W3C//DTD SVG 1.1//EN" "http://www.w3.org/Graphics/SVG/1.1/DTD/svg11.dtd">

<svg width="210mm" height="297mm" viewBox="0 0 210 297" xmlns="http://www.w3.org/2000/svg" xmlns:xlink="http://www.w3.org/1999/xlink" version="1.1" style="stroke:black; fill:none; stroke-width:0.5pt; stroke-linejoin:round; text-anchor:middle; background-color:black" font-family="Helvetica, Arial, FreeSans, Sans, sans, sans-serif">

<g>

<circle cx="75.0" cy="103.5" r="3.0" fill="white" stroke="none" />

<circle cx="75.0" cy="118.5" r="3.0" fill="white" stroke="none" />

<circle cx="75.0" cy="133.5" r="3.0" fill="white" stroke="none" />

<circle cx="75.0" cy="148.5" r="3.0" fill="white" stroke="none" />

<circle cx="75.0" cy="163.5" r="3.0" fill="white" stroke="none" />

<circle cx="75.0" cy="178.5" r="3.0" fill="white" stroke="none" />

<circle cx="75.0" cy="193.5" r="3.0" fill="white" stroke="none" />

<circle cx="90.0" cy="103.5" r="3.0" fill="white" stroke="none" />

<circle cx="90.0" cy="118.5" r="3.0" fill="white" stroke="none" />

<circle cx="90.0" cy="133.5" r="3.0" fill="white" stroke="none" />

<circle cx="90.0" cy="148.5" r="3.0" fill="white" stroke="none" />

<circle cx="90.0" cy="163.5" r="3.0" fill="white" stroke="none" />

<circle cx="90.0" cy="178.5" r="3.0" fill="white" stroke="none" />

<circle cx="90.0" cy="193.5" r="3.0" fill="white" stroke="none" />

<circle cx="105.0" cy="103.5" r="3.0" fill="white" stroke="none" />

<circle cx="105.0" cy="118.5" r="3.0" fill="white" stroke="none" />

<circle cx="105.0" cy="133.5" r="3.0" fill="white" stroke="none" />

<circle cx="105.0" cy="148.5" r="3.0" fill="white" stroke="none" />

<circle cx="105.0" cy="163.5" r="3.0" fill="white" stroke="none" />

<circle cx="105.0" cy="178.5" r="3.0" fill="white" stroke="none" />

<circle cx="105.0" cy="193.5" r="3.0" fill="white" stroke="none" />

<circle cx="120.0" cy="103.5" r="3.0" fill="white" stroke="none" />

<circle cx="120.0" cy="118.5" r="3.0" fill="white" stroke="none" />

<circle cx="120.0" cy="133.5" r="3.0" fill="white" stroke="none" />

<circle cx="120.0" cy="148.5" r="3.0" fill="white" stroke="none" />

<circle cx="120.0" cy="163.5" r="3.0" fill="white" stroke="none" />

<circle cx="120.0" cy="178.5" r="3.0" fill="white" stroke="none" />

<circle cx="120.0" cy="193.5" r="3.0" fill="white" stroke="none" />

<circle cx="135.0" cy="103.5" r="3.0" fill="white" stroke="none" />

<circle cx="135.0" cy="118.5" r="3.0" fill="white" stroke="none" />

<circle cx="135.0" cy="133.5" r="3.0" fill="white" stroke="none" />

<circle cx="135.0" cy="148.5" r="3.0" fill="white" stroke="none" />

<circle cx="135.0" cy="163.5" r="3.0" fill="white" stroke="none" />

<circle cx="135.0" cy="178.5" r="3.0" fill="white" stroke="none" />

<circle cx="135.0" cy="193.5" r="3.0" fill="white" stroke="none" />

</g>

</svg>

